<?xml version="1.0" encoding="UTF-8"?><!-- Generator: Adobe Illustrator 22.1.0, SVG Export Plug-In . SVG Version: 6.00 Build 0)  --><svg id="layer_1" inkscape:version="0.92.5 (2060ec1f9f, 2020-04-08)" style="enable-background:new 0 0 1024 1024;" version="1.1" viewBox="0 0 1024 1024" x="0px" xml:space="preserve" xmlns="http://www.w3.org/2000/svg" xmlns:cc="http://creativecommons.org/ns#" xmlns:dc="http://purl.org/dc/elements/1.1/" xmlns:inkscape="http://www.inkscape.org/namespaces/inkscape" xmlns:rdf="http://www.w3.org/1999/02/22-rdf-syntax-ns#" xmlns:sodipodi="http://sodipodi.sourceforge.net/DTD/sodipodi-0.dtd" xmlns:svg="http://www.w3.org/2000/svg" y="0px"><metadata id="metadata21"><rdf:RDF><cc:Work rdf:about=""><dc:format>image/svg+xml</dc:format><dc:type rdf:resource="http://purl.org/dc/dcmitype/StillImage"/><dc:title/></cc:Work></rdf:RDF></metadata><defs id="defs19"/><sodipodi:namedview bordercolor="#666666" borderopacity="1" gridtolerance="10" guidetolerance="10" id="namedview17" inkscape:current-layer="layer_1" inkscape:cx="240.33416" inkscape:cy="531.65195" inkscape:guide-bbox="true" inkscape:pageopacity="0" inkscape:pageshadow="2" inkscape:window-height="1825" inkscape:window-maximized="0" inkscape:window-width="2580" inkscape:window-x="128" inkscape:window-y="54" inkscape:zoom="0.921875" objecttolerance="10" pagecolor="#ffffff" showgrid="false" showguides="true"><sodipodi:guide id="guide23" inkscape:locked="false" orientation="1,0" position="62.896549,719.47516"/><sodipodi:guide id="guide25" inkscape:locked="false" orientation="1,0" position="965.42373,1179.1186"/></sodipodi:namedview>
<style id="style2" type="text/css">
	.st0{fill:#DEDEDE;}
	.st1{fill:#898989;}
	.st2{fill:#080808;}
	.st3{fill:#FFFFFF;}
</style>
<path class="st0" d="M 802.31015,279.8 H 223.90766 c -60.33525,0 -109.66595,-45.1 -109.66595,-100.2 v -33.4 c 0,-55.1 49.3307,-100.2 109.66595,-100.2 h 578.49735 c 60.33524,0 109.66595,45.1 109.66595,100.2 v 33.4 c 0,55.1 -49.42557,100.2 -109.76081,100.2 z" id="path4" inkscape:connector-curvature="0" style="fill:#dedede;stroke-width:0.97399551"/>
<path class="st0" d="M-443-213" id="path6"/>
<polygon class="st0" id="polygon8" points="996,860 42.5,843.9 99.7,119.3 934,119.3 " style="fill:#dedede" transform="matrix(0.94690713,0,0,1,23.733317,0)"/>
<path class="st1" d="M 857.3425,989.9 H 171.76055 C 111.67007,989.9 62.591445,946 62.591445,892.3 v -32.6 c 0,-53.7 49.173565,-97.6 109.169105,-97.6 H 857.3425 c 60.09046,0 109.16911,43.9 109.16911,97.6 v 32.6 c 0,53.7 -49.17357,97.6 -109.16911,97.6 z" id="path10" inkscape:connector-curvature="0" style="fill:#898989;stroke-width:0.97431844"/>
<path class="st2" d="M849.7,945.1H177.4c-39.6,0-72.1-26.6-72.1-59.1v-19.7c0-32.5,32.4-59.1,72.1-59.1h672.4  c39.7,0,72.1,26.6,72.1,59.1V886C921.8,918.5,889.4,945.1,849.7,945.1z" id="path12"/>
<ellipse class="st3" cx="842.7" cy="876.2" id="ellipse14" rx="42.4" ry="41.9"/>
</svg>
